<svg width="47" height="47" viewBox="0 0 47 47" fill="none" xmlns="http://www.w3.org/2000/svg">
<path d="M23.5 3.91669C12.7017 3.91669 3.91666 12.7018 3.91666 23.5C3.91666 34.2983 12.7017 43.0834 23.5 43.0834C34.2982 43.0834 43.0833 34.2983 43.0833 23.5C43.0833 12.7018 34.2982 3.91669 23.5 3.91669ZM23.5 39.1667C14.8618 39.1667 7.83332 32.1382 7.83332 23.5C7.83332 14.8618 14.8618 7.83335 23.5 7.83335C32.1382 7.83335 39.1667 14.8618 39.1667 23.5C39.1667 32.1382 32.1382 39.1667 23.5 39.1667Z" fill="black"/>
<path d="M26.0321 12.3238L14.8559 23.5L26.0321 34.6762L28.8012 31.9071L20.3941 23.5L28.8012 15.0929L26.0321 12.3238Z" fill="black"/>
</svg>
