<svg width="47" height="47" viewBox="0 0 47 47" fill="none" xmlns="http://www.w3.org/2000/svg">
<path d="M11.75 3.91669H35.25C37.4042 3.91669 39.1667 5.67919 39.1667 7.83335V16.2934H7.83334V7.83335C7.83334 5.67919 9.59584 3.91669 11.75 3.91669Z" stroke="black" stroke-width="3.5" stroke-linecap="round" stroke-linejoin="round"/>
<path d="M7.83334 16.2934V23.2651C7.83334 25.3801 8.96923 27.3384 10.8296 28.3763L16.6262 31.6467C17.86 32.3321 18.6238 33.6443 18.6238 35.0543V39.1667C18.6238 41.3209 20.3863 43.0834 22.5404 43.0834H24.4988C26.6529 43.0834 28.4154 41.3209 28.4154 39.1667V35.0543C28.4154 33.6443 29.1792 32.3321 30.413 31.6467L36.2096 28.3763C38.0504 27.3384 39.2059 25.3801 39.2059 23.2651V16.2934H7.83334Z" stroke="black" stroke-width="3.5" stroke-linecap="round" stroke-linejoin="round"/>
</svg>
