<svg width="47" height="47" viewBox="0 0 47 47" fill="none" xmlns="http://www.w3.org/2000/svg">
<path d="M25.4583 3.91669V13.7084H21.5417V3.91669H25.4583ZM25.4583 33.2917V43.0834H21.5417V33.2917H25.4583ZM13.7083 21.5417V25.4584H3.91667V21.5417H13.7083ZM43.0833 21.5417V25.4584H33.2917V21.5417H43.0833ZM35.9628 8.2681L38.7319 11.0372L31.8073 17.9619L29.0382 15.1928L35.9628 8.2681ZM11.0372 38.7319L8.26809 35.9629L15.1928 29.0382L17.9618 31.8073L11.0372 38.7319ZM17.9618 15.1928L15.1928 17.9619L8.26809 11.0372L11.0372 8.2681L17.9618 15.1928ZM31.8092 29.0382L38.7319 35.9629L35.9609 38.7319L29.0382 31.8073L31.8092 29.0382Z" fill="black"/>
</svg>
