<svg width="47" height="47" viewBox="0 0 47 47" fill="none" xmlns="http://www.w3.org/2000/svg">
<path d="M14.4427 32.8628L16.8906 29.8039L9.01031 23.5L16.8906 17.1961L14.4427 14.1372L4.65106 21.9705C4.42164 22.154 4.23642 22.3867 4.10914 22.6515C3.98186 22.9162 3.91577 23.2062 3.91577 23.5C3.91577 23.7938 3.98186 24.0838 4.10914 24.3485C4.23642 24.6133 4.42164 24.846 4.65106 25.0295L14.4427 32.8628ZM32.5573 14.1372L30.1094 17.1961L37.9897 23.5L30.1094 29.8039L32.5573 32.8628L42.349 25.0295C42.5784 24.846 42.7636 24.6133 42.8909 24.3485C43.0182 24.0838 43.0843 23.7938 43.0843 23.5C43.0843 23.2062 43.0182 22.9162 42.8909 22.6515C42.7636 22.3867 42.5784 22.154 42.349 21.9705L32.5573 14.1372ZM29.328 6.29801L21.4947 41.548L17.6701 40.6981L25.5034 5.44809L29.328 6.29801Z" fill="black"/>
</svg>
