<svg width="47" height="47" viewBox="0 0 47 47" fill="none" xmlns="http://www.w3.org/2000/svg">
<path d="M26.2417 4.10466C23.0126 3.66269 19.7244 4.02709 16.6705 5.16534C13.6166 6.30359 10.8921 8.18027 8.74004 10.6279C6.89823 12.7491 5.53168 15.2399 4.73216 17.933C3.93265 20.6261 3.71869 23.459 4.10467 26.2417C5.14259 33.8674 10.8766 40.3554 18.3711 42.3901C20.0418 42.8473 21.7659 43.0804 23.498 43.0833L23.7761 43.0814C24.7662 43.0686 25.7369 42.8059 26.5983 42.3177C27.4597 41.8295 28.1837 41.1316 28.7033 40.2888C29.2246 39.4505 29.5254 38.494 29.5778 37.5083C29.6302 36.5225 29.4324 35.5395 29.0029 34.6507L28.6132 33.8361C28.3135 33.2504 28.1727 32.5964 28.205 31.9393C28.2373 31.2822 28.4416 30.6451 28.7973 30.0917C29.3063 29.2649 30.1037 28.6561 31.0355 28.383C31.9672 28.1099 32.9672 28.1919 33.842 28.6132L34.6488 28.999C35.4556 29.3867 36.3134 29.5845 37.1966 29.5845C38.7422 29.5766 40.2235 28.9643 41.3235 27.8785C42.4236 26.7927 43.0552 25.3196 43.0833 23.7742C43.1076 21.949 42.8749 20.1295 42.392 18.3692C40.3554 10.8766 33.8674 5.14258 26.2417 4.10466ZM36.3428 25.4681L35.5359 25.0823C31.9561 23.3629 27.5655 24.6946 25.4799 28.0081C24.0346 30.3111 23.8878 33.0527 25.0804 35.532L25.4701 36.3467C25.6162 36.6426 25.6837 36.9711 25.6662 37.3007C25.6487 37.6303 25.5468 37.9498 25.3702 38.2286C25.1981 38.5134 24.9557 38.7493 24.6663 38.9135C24.3769 39.0778 24.0502 39.165 23.7174 39.1667H23.498C22.1121 39.1628 20.7326 38.9765 19.3953 38.6124C13.397 36.9851 8.81446 31.7994 7.98609 25.7149C7.35746 21.103 8.67542 16.6615 11.6932 13.2031C13.4102 11.2334 15.5924 9.72439 18.0413 8.81323C20.4902 7.90207 23.128 7.61773 25.7149 7.98608C31.7994 8.81445 36.9851 13.3989 38.6125 19.3953C39.0002 20.8249 39.1863 22.2819 39.1647 23.7174C39.1412 25.2977 37.5099 26.0341 36.3428 25.4681Z" fill="black"/>
<path d="M14.6875 31.3333C16.3098 31.3333 17.625 30.0181 17.625 28.3958C17.625 26.7735 16.3098 25.4583 14.6875 25.4583C13.0652 25.4583 11.75 26.7735 11.75 28.3958C11.75 30.0181 13.0652 31.3333 14.6875 31.3333Z" fill="black"/>
<path d="M14.6875 23.5C16.3098 23.5 17.625 22.1848 17.625 20.5625C17.625 18.9402 16.3098 17.625 14.6875 17.625C13.0652 17.625 11.75 18.9402 11.75 20.5625C11.75 22.1848 13.0652 23.5 14.6875 23.5Z" fill="black"/>
<path d="M20.5625 17.625C22.1848 17.625 23.5 16.3098 23.5 14.6875C23.5 13.0652 22.1848 11.75 20.5625 11.75C18.9402 11.75 17.625 13.0652 17.625 14.6875C17.625 16.3098 18.9402 17.625 20.5625 17.625Z" fill="black"/>
<path d="M28.3958 17.625C30.0182 17.625 31.3333 16.3098 31.3333 14.6875C31.3333 13.0652 30.0182 11.75 28.3958 11.75C26.7735 11.75 25.4583 13.0652 25.4583 14.6875C25.4583 16.3098 26.7735 17.625 28.3958 17.625Z" fill="black"/>
</svg>
