<svg width="47" height="47" viewBox="0 0 47 47" fill="none" xmlns="http://www.w3.org/2000/svg">
<path d="M9.79167 39.1667C9.79167 40.2055 10.2043 41.2017 10.9388 41.9362C11.6733 42.6707 12.6696 43.0834 13.7083 43.0834H33.2917C34.3304 43.0834 35.3267 42.6707 36.0612 41.9362C36.7957 41.2017 37.2083 40.2055 37.2083 39.1667V15.6667H41.125V11.75H33.2917V7.83335C33.2917 6.79459 32.879 5.79837 32.1445 5.06385C31.41 4.32933 30.4138 3.91669 29.375 3.91669H17.625C16.5862 3.91669 15.59 4.32933 14.8555 5.06385C14.121 5.79837 13.7083 6.79459 13.7083 7.83335V11.75H5.875V15.6667H9.79167V39.1667ZM17.625 7.83335H29.375V11.75H17.625V7.83335ZM15.6667 15.6667H33.2917V39.1667H13.7083V15.6667H15.6667Z" fill="black"/>
<path d="M17.625 19.5833H21.5417V35.25H17.625V19.5833ZM25.4583 19.5833H29.375V35.25H25.4583V19.5833Z" fill="black"/>
</svg>
