<svg width="47" height="47" viewBox="0 0 47 47" fill="none" xmlns="http://www.w3.org/2000/svg">
<path d="M9.79167 41.125H37.2083C38.2471 41.125 39.2433 40.7123 39.9778 39.9778C40.7124 39.2433 41.125 38.2471 41.125 37.2083V15.6666C41.1265 15.4089 41.0771 15.1534 40.9796 14.9148C40.8822 14.6762 40.7386 14.4592 40.5571 14.2762L32.7237 6.44289C32.5408 6.26139 32.3238 6.11779 32.0852 6.02034C31.8466 5.92288 31.5911 5.87348 31.3333 5.87497H9.79167C8.7529 5.87497 7.75668 6.28762 7.02216 7.02214C6.28765 7.75665 5.875 8.75287 5.875 9.79164V37.2083C5.875 38.2471 6.28765 39.2433 7.02216 39.9778C7.75668 40.7123 8.7529 41.125 9.79167 41.125ZM29.375 37.2083H17.625V27.4166H29.375V37.2083ZM25.4583 13.7083H21.5417V9.79164H25.4583V13.7083ZM9.79167 9.79164H13.7083V17.625H29.375V9.79164H30.5304L37.2083 16.4696V37.2083H33.2917V27.4166C33.2917 26.3779 32.879 25.3817 32.1445 24.6471C31.41 23.9126 30.4138 23.5 29.375 23.5H17.625C16.5862 23.5 15.59 23.9126 14.8555 24.6471C14.121 25.3817 13.7083 26.3779 13.7083 27.4166V37.2083H9.79167V9.79164Z" fill="black"/>
</svg>
