<svg width="43" height="43" viewBox="0 0 43 43" fill="none" xmlns="http://www.w3.org/2000/svg">
<path d="M8.95833 39.4167H34.0417C34.992 39.4167 35.9035 39.0391 36.5755 38.3671C37.2475 37.6951 37.625 36.7837 37.625 35.8333V19.7083C37.6264 19.4725 37.5812 19.2388 37.492 19.0205C37.4028 18.8022 37.2715 18.6037 37.1054 18.4362L22.7721 4.10291C22.4364 3.76921 21.9823 3.58191 21.509 3.58191C21.0356 3.58191 20.5815 3.76921 20.2458 4.10291L5.9125 18.4362C5.74321 18.6022 5.60853 18.8001 5.51626 19.0184C5.424 19.2368 5.37598 19.4713 5.375 19.7083V35.8333C5.375 36.7837 5.75253 37.6951 6.42453 38.3671C7.09654 39.0391 8.00797 39.4167 8.95833 39.4167ZM17.9167 35.8333V26.875H25.0833V35.8333H17.9167ZM8.95833 20.4429L21.5 7.90125L34.0417 20.4429V35.8333H28.6667V26.875C28.6667 25.9246 28.2891 25.0132 27.6171 24.3412C26.9451 23.6692 26.0337 23.2917 25.0833 23.2917H17.9167C16.9663 23.2917 16.0549 23.6692 15.3829 24.3412C14.7109 25.0132 14.3333 25.9246 14.3333 26.875V35.8333H8.95833V20.4429Z" fill="black"/>
</svg>
