<svg width="47" height="47" viewBox="0 0 47 47" fill="none" xmlns="http://www.w3.org/2000/svg">
<rect width="47" height="47" fill="white"/>
<path d="M42.7112 7.71584C39.6954 15.2358 32.1362 25.4583 25.8108 30.5304L21.9529 33.6246C21.4633 33.9771 20.9737 34.2904 20.4254 34.5058C20.4254 34.1533 20.4058 33.7617 20.3471 33.3896C20.1317 31.7446 19.3875 30.2171 18.0754 28.905C16.7437 27.5733 15.1183 26.79 13.4537 26.5746C13.0621 26.555 12.6704 26.5158 12.2787 26.555C12.4942 25.9479 12.8271 25.38 13.2383 24.91L16.2933 21.0521C21.3458 14.7267 31.6075 7.12834 39.1079 4.13209C40.2633 3.70125 41.3796 4.01459 42.0846 4.73917C42.8287 5.46375 43.1812 6.58 42.7112 7.71584Z" stroke="black" stroke-width="3.5" stroke-linecap="round" stroke-linejoin="round"/>
<path d="M20.4254 34.5058C20.4254 36.66 19.6029 38.7162 18.0558 40.2829C16.8613 41.4775 15.2358 42.3 13.2971 42.5546L8.47958 43.0833C5.85542 43.3771 3.60333 41.1446 3.91667 38.4812L4.44542 33.6637C4.91542 29.375 8.49917 26.6333 12.2983 26.555C12.69 26.5354 13.1012 26.555 13.4733 26.5746C15.1379 26.79 16.7633 27.5537 18.095 28.905C19.4071 30.2171 20.1512 31.7446 20.3667 33.3896C20.3862 33.7617 20.4254 34.1337 20.4254 34.5058Z" stroke="black" stroke-width="3.5" stroke-linecap="round" stroke-linejoin="round"/>
<path d="M27.8867 28.3371C27.8867 23.2258 23.735 19.0742 18.6237 19.0742" stroke="black" stroke-width="3.5" stroke-linecap="round" stroke-linejoin="round"/>
</svg>
