<svg width="47" height="47" viewBox="0 0 47 47" fill="none" xmlns="http://www.w3.org/2000/svg">
<path d="M41.5637 30.4384L39.9715 27.5714L36.5484 29.4749L38.1385 32.336C38.2325 32.5025 38.2991 32.6748 38.3422 32.853C38.4142 33.1767 38.4047 33.5131 38.3148 33.8322C38.2672 33.9938 38.1988 34.1485 38.1111 34.2924C37.9459 34.5754 37.7122 34.8124 37.4316 34.9817C37.1279 35.1621 36.7802 35.2549 36.427 35.25H27.4167V31.3334L19.5833 37.2084L27.4167 43.0834V39.1667H36.427C36.9714 39.1667 37.508 39.0942 38.0152 38.9532C38.9949 38.6829 39.886 38.1587 40.5982 37.4336C40.9468 37.083 41.2484 36.6894 41.4912 36.2723C42.264 34.9661 42.4999 33.4111 42.1492 31.9346C42.0198 31.4125 41.823 30.9096 41.5637 30.4384ZM11.4797 21.6181L6.956 30.6656C6.72175 31.134 6.54991 31.631 6.44487 32.1441C6.25352 33.105 6.30577 34.0986 6.59686 35.0341C6.88796 35.9697 7.40864 36.8174 8.11142 37.5001C8.46 37.8409 8.84775 38.1386 9.27662 38.3873C10.1707 38.898 11.1825 39.1667 12.2122 39.1667H15.6667V35.25H12.2122C11.8693 35.2509 11.532 35.1633 11.233 34.9954C10.9474 34.8311 10.7092 34.5957 10.5417 34.312C10.3698 34.0355 10.2695 33.7205 10.2499 33.3955C10.2405 33.2347 10.2523 33.0734 10.2852 32.9157C10.3204 32.7453 10.3792 32.5769 10.4595 32.4144L14.8775 23.5784L18.0088 25.3859L16.8377 15.6667L7.83333 19.5129L11.4797 21.6181ZM36.4211 25.3879L37.5922 15.6667L34.3844 17.5173L28.8169 7.49652C28.4282 6.78379 27.8937 6.16096 27.2482 5.66865C26.6027 5.17635 25.8607 4.82561 25.0706 4.63931C24.575 4.52448 24.0674 4.46991 23.5587 4.47677C22.5233 4.49618 21.5113 4.7887 20.6252 5.32473C19.6793 5.89885 18.917 6.73113 18.4279 7.72369L16.9944 10.5907L20.4979 12.3434L21.9314 9.47444C22.0195 9.29819 22.1292 9.13956 22.2565 9.00052C22.4898 8.7458 22.7906 8.56246 23.124 8.47177C23.4625 8.3762 23.8198 8.36878 24.1619 8.45023C24.4233 8.51159 24.6686 8.62806 24.8814 8.79186C25.0942 8.95566 25.2695 9.163 25.3957 9.40002L30.9926 19.4776L27.4167 21.5417L36.4211 25.3879Z" fill="black"/>
</svg>
