<svg width="47" height="47" viewBox="0 0 47 47" fill="none" xmlns="http://www.w3.org/2000/svg">
<path d="M7.83333 30.8633L5.875 38.6967C5.80511 38.9527 5.788 39.2203 5.82471 39.4832C5.86142 39.7461 5.95118 39.9987 6.08855 40.2258C6.22592 40.453 6.40802 40.6498 6.62379 40.8043C6.83957 40.9589 7.08451 41.068 7.34375 41.125C7.65866 41.2046 7.98842 41.2046 8.30333 41.125L16.1367 39.1667C16.4842 39.084 16.8025 38.908 17.0571 38.6575L33.2917 22.3446L35.8179 24.8904L38.5987 22.1096L36.0529 19.5833L41.125 14.5112C41.8545 13.7774 42.2639 12.7847 42.2639 11.75C42.2639 10.7153 41.8545 9.72258 41.125 8.98874L38.0112 5.87499C37.2774 5.14551 36.2847 4.73605 35.25 4.73605C34.2153 4.73605 33.2226 5.14551 32.4887 5.87499L27.4167 10.9471L24.8708 8.40124L22.09 11.1821L24.6358 13.7083L8.40125 29.9429C8.1293 30.1903 7.93249 30.5093 7.83333 30.8633ZM11.4954 32.3321L27.4167 16.4892L30.5108 19.5833L14.6679 35.4458L10.5162 36.4837L11.4954 32.3321Z" fill="black"/>
</svg>
