<svg width="47" height="47" viewBox="0 0 47 47" fill="none" xmlns="http://www.w3.org/2000/svg">
<path d="M23.5 3.91669C12.7018 3.91669 3.91669 12.7018 3.91669 23.5C3.91669 34.2983 12.7018 43.0834 23.5 43.0834C34.2983 43.0834 43.0834 34.2983 43.0834 23.5C43.0834 12.7018 34.2983 3.91669 23.5 3.91669ZM23.5 39.1667C14.8618 39.1667 7.83335 32.1382 7.83335 23.5C7.83335 14.8618 14.8618 7.83335 23.5 7.83335C32.1382 7.83335 39.1667 14.8618 39.1667 23.5C39.1667 32.1382 32.1382 39.1667 23.5 39.1667Z" fill="black"/>
<path d="M17.625 33.2916L33.2917 23.5L17.625 13.7083V33.2916Z" fill="black"/>
</svg>
