<svg width="47" height="47" viewBox="0 0 47 47" fill="none" xmlns="http://www.w3.org/2000/svg">
<path d="M23.5 31.3333C26.7724 31.3333 29.375 28.7268 29.375 25.4583C29.375 22.1899 26.7724 19.5833 23.5 19.5833C20.2276 19.5833 17.625 22.1899 17.625 25.4583C17.625 28.7268 20.2276 31.3333 23.5 31.3333Z" fill="black"/>
<path d="M40.7666 21.9059C40.3052 19.6506 39.4034 17.5085 38.1131 15.6021C36.8452 13.7265 35.2299 12.1112 33.3543 10.8433C31.4477 9.55341 29.3056 8.65173 27.0505 8.18977C25.8659 7.94954 24.6597 7.83142 23.451 7.83727V3.91669L15.6667 9.79169L23.451 15.6667V11.7539C24.3989 11.75 25.3467 11.8401 26.2613 12.0281C28.014 12.3873 29.6789 13.088 31.161 14.0902C32.6227 15.0757 33.8807 16.3337 34.8662 17.7954C36.3963 20.0577 37.2122 22.7272 37.2083 25.4584C37.208 27.2911 36.8418 29.1054 36.1313 30.7948C35.7857 31.6086 35.3634 32.3876 34.8701 33.1213C34.3748 33.8506 33.8123 34.5318 33.1898 35.156C31.2942 37.0481 28.8876 38.346 26.2652 38.8906C24.4414 39.2588 22.5625 39.2588 20.7388 38.8906C18.9852 38.531 17.3196 37.8297 15.837 36.8265C14.3771 35.8418 13.1204 34.5852 12.1358 33.1252C10.6074 30.8605 9.79109 28.1905 9.79167 25.4584H5.875C5.87708 28.971 6.9264 32.4033 8.88888 35.3166C10.1576 37.189 11.7713 38.8027 13.6437 40.0714C16.553 42.0405 19.987 43.0898 23.5 43.0834C24.6932 43.0833 25.8833 42.9632 27.0524 42.725C29.3059 42.2597 31.4467 41.3582 33.3543 40.0714C34.291 39.4403 35.1639 38.7195 35.9609 37.9192C36.7589 37.119 37.4801 36.2457 38.115 35.3107C40.0824 32.4022 41.131 28.9698 41.125 25.4584C41.1249 24.2652 41.0048 23.0751 40.7666 21.9059Z" fill="black"/>
</svg>
