<svg width="47" height="47" viewBox="0 0 47 47" fill="none" xmlns="http://www.w3.org/2000/svg">
<path d="M33.2329 23.9896V32.8021C33.2329 40.1458 30.2954 43.0833 22.9517 43.0833H14.1392C6.79542 43.0833 3.85792 40.1458 3.85792 32.8021V23.9896C3.85792 16.6458 6.79542 13.7083 14.1392 13.7083H22.9517C30.2954 13.7083 33.2329 16.6458 33.2329 23.9896Z" stroke="black" stroke-width="3.5" stroke-linecap="round" stroke-linejoin="round"/>
<path d="M43.0246 14.6875C43.0246 20.3079 38.7358 24.91 33.2329 25.3996V23.9896C33.2329 16.6458 30.2954 13.7083 22.9517 13.7083H21.5417C22.0312 8.20541 26.6333 3.91666 32.2537 3.91666C37.7175 3.91666 42.2217 7.97041 42.9071 13.2579C42.9854 13.7083 43.0246 14.1979 43.0246 14.6875Z" stroke="black" stroke-width="3.5" stroke-linecap="round" stroke-linejoin="round"/>
</svg>
