<svg width="47" height="47" viewBox="0 0 47 47" fill="none" xmlns="http://www.w3.org/2000/svg">
<path d="M21.5417 11.75H17.625V17.625H11.75V21.5417H17.625V27.4167H21.5417V21.5417H27.4167V17.625H21.5417V11.75Z" fill="black"/>
<path d="M19.5834 3.91669C10.9451 3.91669 3.91669 10.9451 3.91669 19.5834C3.91669 28.2216 10.9451 35.25 19.5834 35.25C23.0593 35.2493 26.4352 34.0857 29.1733 31.9444L37.7821 40.5532L40.5512 37.7841L31.9424 29.1753C34.0848 26.4369 35.2492 23.0603 35.25 19.5834C35.25 10.9451 28.2216 3.91669 19.5834 3.91669ZM19.5834 31.3334C13.1032 31.3334 7.83335 26.0635 7.83335 19.5834C7.83335 13.1032 13.1032 7.83335 19.5834 7.83335C26.0635 7.83335 31.3334 13.1032 31.3334 19.5834C31.3334 26.0635 26.0635 31.3334 19.5834 31.3334Z" fill="black"/>
</svg>
